<svg width="10" height="10" viewBox="0 0 10 10" fill="none" xmlns="http://www.w3.org/2000/svg">
<path fill-rule="evenodd" clip-rule="evenodd" d="M8.98687 1.55192C9.16438 1.19689 9.16438 0.621289 8.98687 0.266267C8.80936 -0.0887555 8.52155 -0.0887555 8.34404 0.266267L4.25313 8.44808C4.23053 8.49329 4.21081 8.54206 4.19396 8.5935L0.768198 5.13313C0.592462 4.95562 0.307538 4.95562 0.131802 5.13313C-0.043934 5.31064 -0.043934 5.59845 0.131802 5.77596L4.1818 9.86687C4.28074 9.9668 4.41429 10.0105 4.54347 9.99789C4.62554 10.0091 4.70883 9.9759 4.78362 9.8984C4.79555 9.8886 4.80709 9.87809 4.8182 9.86687C4.87972 9.80472 4.91971 9.72906 4.93815 9.64934L8.98687 1.55192Z" fill="white"/>
</svg>
