<svg width="14" height="15" viewBox="0 0 14 15" fill="none" xmlns="http://www.w3.org/2000/svg">
<path fill-rule="evenodd" clip-rule="evenodd" d="M4.53935 10.9138H1.50862C1.24112 10.9138 0.984575 10.8075 0.795417 10.6184C0.606266 10.4292 0.5 10.1727 0.5 9.90514V6.20688C0.5 4.95854 0.995901 3.76133 1.87862 2.87862C2.76133 1.9959 3.95855 1.5 5.20689 1.5C6.45523 1.5 7.65247 1.9959 8.53518 2.87862C8.93318 3.27665 9.25257 3.73864 9.48331 4.24042C10.5217 4.39436 11.4837 4.89209 12.2111 5.66044C13.0387 6.53463 13.5 7.69267 13.5 8.89656V12.5948C13.5 12.8623 13.3938 13.1189 13.2046 13.308C13.0154 13.4972 12.7589 13.6035 12.4914 13.6035H8.7931C7.81966 13.6035 6.87017 13.3017 6.07528 12.7398C5.41282 12.2716 4.88488 11.6418 4.53935 10.9138ZM2.82956 3.82955C3.46006 3.19904 4.31522 2.84483 5.20689 2.84483C6.09856 2.84483 6.95373 3.19904 7.58427 3.82956C8.21472 4.46006 8.56897 5.31522 8.56897 6.2069C8.56897 7.09857 8.21472 7.95375 7.58427 8.58427C6.95373 9.21473 6.09858 9.56897 5.2069 9.56897H4.99365C4.99005 9.5689 4.98646 9.5689 4.98286 9.56897H1.84483V6.20689C1.84483 5.31522 2.19904 4.46006 2.82956 3.82955ZM6.0475 10.8381C6.26671 11.1478 6.53803 11.4201 6.85152 11.6417C7.41937 12.0431 8.09774 12.2586 8.7931 12.2586H12.1552V8.89656C12.1552 8.03666 11.8257 7.20946 11.2345 6.58503C10.859 6.18844 10.3961 5.89278 9.88833 5.71779C9.90526 5.87954 9.91379 6.04278 9.91379 6.2069C9.91379 7.45524 9.41789 8.65248 8.53518 9.53519C7.85323 10.2171 6.98348 10.6682 6.0475 10.8381Z" fill="#72767D"/>
</svg>
