<svg width="14" height="15" viewBox="0 0 14 15" fill="none" xmlns="http://www.w3.org/2000/svg">
<path fill-rule="evenodd" clip-rule="evenodd" d="M8.18181 8.99743C8.18181 9.64714 7.64999 10.1787 7.00002 10.1787C6.35001 10.1787 5.81819 9.64714 5.81819 8.99743C5.81819 8.34767 6.35001 7.81606 7.00002 7.81606C7.64999 7.81606 8.18181 8.34767 8.18181 8.99743ZM4.93182 13.1321V12.8368C4.93182 11.8327 5.78273 11.0648 7.00002 11.0648C8.21727 11.0648 9.06818 11.8327 9.06818 12.8368V13.1321H4.93182ZM4.04546 8.99743C4.04546 7.36716 5.36911 6.04403 7.00002 6.04403C8.63093 6.04403 9.95454 7.36716 9.95454 8.99743C9.95454 9.53493 9.80093 10.0311 9.54681 10.4682L10.3209 10.9171C10.6459 10.3501 10.8409 9.7003 10.8409 8.99743C10.8409 6.88278 9.11546 5.15802 7.00002 5.15802C4.88453 5.15802 3.1591 6.88278 3.1591 8.99743C3.1591 9.69441 3.34819 10.3501 3.6791 10.9171L4.45318 10.4682C4.19911 10.0311 4.04546 9.53493 4.04546 8.99743Z" fill="#72767D"/>
<path d="M7.00002 3.38601C3.89773 3.38601 1.38636 5.8964 1.38636 8.99745C1.38636 10.0193 1.66409 10.9762 2.13682 11.7972L1.37455 12.2403C0.825003 11.2893 0.5 10.1788 0.5 8.99745C0.5 5.41202 3.41319 2.5 7.00002 2.5C10.5868 2.5 13.5 5.41202 13.5 8.99745C13.5 10.1788 13.175 11.2893 12.6196 12.2461L11.8573 11.8031C12.3359 10.9762 12.6136 10.0193 12.6136 8.99745C12.6136 5.8964 10.1023 3.38601 7.00002 3.38601Z" fill="#72767D"/>
</svg>
