<svg width="14" height="15" viewBox="0 0 14 15" fill="none" xmlns="http://www.w3.org/2000/svg">
<path d="M6.91995 1.55165C6.66405 1.44664 6.36984 1.5046 6.17416 1.69963L3.23684 4.90872H1.18421C0.807895 4.90872 0.5 5.21626 0.5 5.59063V9.68209C0.5 10.0571 0.807895 10.364 1.18421 10.364H3.23684L6.17416 13.5745C6.36984 13.7695 6.66405 13.8281 6.91995 13.7224C7.17584 13.6167 7.34211 13.3678 7.34211 13.0917V2.18106C7.34211 1.90625 7.17584 1.65598 6.91995 1.55165ZM8.71053 2.86291V4.22674C10.5969 4.22674 12.1316 5.75696 12.1316 7.63635C12.1316 9.51639 10.5969 11.0459 8.71053 11.0459V12.4098C11.3516 12.4098 13.5 10.2692 13.5 7.63635C13.5 5.00481 11.3516 2.86291 8.71053 2.86291ZM8.71053 5.59057C9.84221 5.59057 10.7632 6.50914 10.7632 7.63635C10.7632 8.76492 9.84221 9.68209 8.71053 9.68209V8.31826C9.08753 8.31826 9.39474 8.01208 9.39474 7.63635C9.39474 7.26061 9.08753 6.95443 8.71053 6.95443V5.59057Z" fill="#72767D"/>
</svg>
