<svg width="14" height="14" viewBox="0 0 14 14" fill="none" xmlns="http://www.w3.org/2000/svg">
<path d="M6.70595 1.47368V0C10.7286 0 13.9999 3.30547 13.9999 7.36842H12.5411C12.5411 4.11821 9.92333 1.47368 6.70595 1.47368ZM11.0823 7.36842H9.62355C9.62355 5.74368 8.31501 4.42105 6.70595 4.42105V2.94737C9.11953 2.94737 11.0823 4.93021 11.0823 7.36842ZM6.70595 5.89474V7.36842H8.16475C8.16475 6.55495 7.51194 5.89474 6.70595 5.89474ZM8.89415 9.57895H11.8117C12.2151 9.57895 12.5411 9.90832 12.5411 10.3158V13.2632C12.5411 13.6706 12.2151 14 11.8117 14H8.16475C3.73365 14 0.141357 10.3711 0.141357 5.89474V2.21053C0.141357 1.80305 0.468128 1.47368 0.870757 1.47368H3.78835C4.19171 1.47368 4.51775 1.80305 4.51775 2.21053V5.15789C4.51775 5.56537 4.19171 5.89474 3.78835 5.89474H3.05895C3.10491 8.79642 5.24715 11.0526 8.16475 11.0526V10.3158C8.16475 9.90832 8.49079 9.57895 8.89415 9.57895Z" fill="white"/>
</svg>
